<svg width="84" height="84" fill="none" xmlns="http://www.w3.org/2000/svg"><path d="M47.648 32.385a2.473 2.473 0 00-.272-2.301c-.947-1.371-2.767-1.452-3.994-.285-3.223 3.066-6.413 6.07-9.622 9.111-.62.587-.925 1.384-.838 2.187.085.794.547 1.5 1.267 1.934 1.533.926 3.078 1.797 4.61 2.673-.867 2.066-1.663 3.877-2.448 5.906a2.494 2.494 0 001.262 3.16c.937.454 2.018.366 3.002-.57 3.186-3.033 6.438-6.09 9.626-9.114.626-.594.93-1.396.835-2.2-.097-.815-.59-1.533-1.352-1.97-1.509-.869-3.014-1.744-4.521-2.615.82-1.93 1.673-3.923 2.445-5.916zm-5.068 5.796c-.294.695-.048 1.419.614 1.8 1.768 1.022 3.533 2.05 5.303 3.068.182.104.187.122.05.252-2.592 2.458-9.613 9.181-9.833 9.267-.024-.01-.083-.03-.068-.07.873-2.255 1.796-4.363 2.776-6.683.244-.578.148-1.358-.619-1.8-1.778-1.023-3.576-2.024-5.342-3.09-.132-.08-.126-.117-.009-.228 3.425-3.245 9.509-9.073 9.812-9.263.065.014.089.049.09.063-.872 2.246-1.84 4.478-2.774 6.684zm41.398-8.9a1.23 1.23 0 00-1.441-.976l-8.154 1.569c-3.795.728-7.803-.1-10.998-2.274l-4.82-3.28a1.23 1.23 0 00-1.385 2.035l4.82 3.28a17.233 17.233 0 0012.847 2.655l8.154-1.568a1.23 1.23 0 00.976-1.441zm-59.105-8.406l18.278-4.428c.314.478.728.889 1.226 1.197l9.255 6.297a1.23 1.23 0 001.384-2.035l-9.28-6.313c-.348-.231-.602-.498-.718-.913a1.447 1.447 0 01.205-1.178c.007-.012.017-.023.036-.047.636-.784 1.54-.74 2.461-.432l12.894 3.861a1.23 1.23 0 10.706-2.357l-12.823-3.84c-1.845-.786-3.958-.283-5.156 1.226a3.856 3.856 0 00-.833 2.157l-18.224 4.416a1.724 1.724 0 01-2.136-1.665c0-.65.362-1.239.943-1.533l24.64-12.43a3.685 3.685 0 013.067-.119l20.808 8.56c.6.247 1.23.444 1.871.58 1.023.218 2.163.37 3.191.213l6.308-1.08a1.23 1.23 0 10-.415-2.425L76.32 9.655a8.584 8.584 0 01-2.255-.169 8.41 8.41 0 01-1.52-.463L51.733.463a6.143 6.143 0 00-5.112.198l-24.64 12.431a4.16 4.16 0 00-2.294 3.73c0 2.668 2.573 4.721 5.185 4.053zm6.756 35.118a1.23 1.23 0 00.376 1.7A18.547 18.547 0 0042 60.603c10.258 0 18.603-8.345 18.603-18.603 0-10.258-8.345-18.604-18.603-18.604-10.258 0-18.603 8.346-18.603 18.604a18.58 18.58 0 004.609 12.257 1.23 1.23 0 001.85-1.622A16.127 16.127 0 0125.858 42c0-8.901 7.24-16.142 16.142-16.142 8.9 0 16.142 7.24 16.142 16.142 0 8.9-7.241 16.142-16.142 16.142-3.085 0-6.084-.873-8.671-2.524a1.23 1.23 0 00-1.7.375zm27.498 7.132l-18.279 4.428a3.947 3.947 0 00-1.225-1.197L22 54.366A17.219 17.219 0 009.152 51.71L.998 53.279a1.23 1.23 0 00.465 2.416l8.154-1.569A14.74 14.74 0 0120.615 56.4c.032.021 17.668 12.021 17.701 12.042.653.397 1.02 1.259.484 2.022-.59.84-1.617.821-2.52.513l-7.621-2.282c-1.759-.526-3.516-1.053-5.273-1.58a1.23 1.23 0 10-.706 2.357c1.757.527 3.514 1.054 5.273 1.58l7.55 2.261c1.792.767 3.913.301 5.156-1.227.5-.615.788-1.377.833-2.156l18.224-4.416a1.724 1.724 0 012.136 1.664 1.71 1.71 0 01-.944 1.533L36.27 81.143a3.684 3.684 0 01-3.067.117l-20.809-8.558c-.602-.248-1.237-.408-1.87-.581-.97-.264-2.185-.364-3.192-.213l-6.308 1.08a1.23 1.23 0 10.415 2.425l6.243-1.068a8.631 8.631 0 013.775.632l20.81 8.56c1.65.68 3.515.61 5.112-.197l24.64-12.432a4.16 4.16 0 002.295-3.73c0-2.715-2.592-4.715-5.186-4.053z" fill="#fff"/></svg>