<svg width="58" height="58" fill="none" xmlns="http://www.w3.org/2000/svg"><path d="M21 38v-6.417a.636.636 0 00-.146-.412A.467.467 0 0020.5 31h-2a.467.467 0 00-.354.17.636.636 0 00-.146.413V38h1v-5.833h1V38h1zm10 2v-7.467c0-.141-.088-.277-.244-.377a1.113 1.113 0 00-.59-.156h-3.333c-.22 0-.433.056-.589.156-.156.1-.244.236-.244.377V40h1.667v-6.933h1.666V40H31zm-6 0V29.579c0-.154-.053-.3-.146-.41A.468.468 0 0024.5 29h-2a.468.468 0 00-.354.17.628.628 0 00-.146.409v9.263h1v-8.684h1V40h1zm10-4.583v-5.834a.636.636 0 00-.146-.412A.467.467 0 0034.5 29h-2a.467.467 0 00-.354.17.636.636 0 00-.146.413V36h1v-5.833h1v5.25h1zM39 35v-9.375a.712.712 0 00-.146-.442A.456.456 0 0038.5 25h-2a.456.456 0 00-.354.183.712.712 0 00-.146.442V35h1v-8.75h1V35h1z" fill="#265FB4"/><path d="M17.882 30.192a.548.548 0 00.404.183.548.548 0 00.404-.183l4.717-5.16 4.74 5.761a.577.577 0 00.185.15.55.55 0 00.224.057h.015a.548.548 0 00.404-.183l7.596-8.308v1.616c0 .166.06.325.168.442a.548.548 0 00.404.183h2.286a.548.548 0 00.404-.183.656.656 0 00.167-.442v-7.5a.656.656 0 00-.167-.442.548.548 0 00-.404-.183H32.57a.548.548 0 00-.404.183.656.656 0 00-.167.442v2.5c0 .166.06.325.167.442a.548.548 0 00.404.183h1.478l-5.456 5.967-4.74-5.76a.577.577 0 00-.185-.15.531.531 0 00-.643.126l-6.858 7.5a.656.656 0 00-.167.442c0 .166.06.325.167.442l1.715 1.875zm5.525-8.91l4.74 5.761a.577.577 0 00.185.15.532.532 0 00.643-.126l6.858-7.5a.644.644 0 00.156-.32.68.68 0 00-.032-.361.617.617 0 00-.211-.28.537.537 0 00-.317-.106h-2.286v-1.25h5.714v6.25h-1.143V21a.667.667 0 00-.096-.347.586.586 0 00-.257-.23.526.526 0 00-.33-.036.558.558 0 00-.292.171l-8.146 8.91-4.74-5.761a.577.577 0 00-.185-.15.531.531 0 00-.643.126l-4.74 5.183-.905-.991 6.027-6.592z" fill="#265FB4"/><circle cx="29" cy="29" r="27.5" stroke="#265FB4" stroke-width="3"/></svg>