<svg width="75" height="89" fill="none" xmlns="http://www.w3.org/2000/svg"><path d="M65.064 72.157l-20.253-3.979a7.59 7.59 0 01-.088-5.462l.222-.605c.228-.161.451-.33.668-.507 7.705-6.232 11.61-11.833 11.61-16.648 0-.502-.02-1.008-.06-1.503l-.003-.02c-.027-.272-.05-.649-.07-1.12 2.61-.698 4.585-3.437 4.618-6.7a8.15 8.15 0 00-.16-1.709 4.797 4.797 0 002.896-4.4v-2.311c0-.72-.584-1.304-1.304-1.304h-3.9v-5.487c0-9.656-7.857-17.511-17.516-17.511h-.046V1.304c0-.72-.583-1.304-1.303-1.304h-5.723c-.72 0-1.304.584-1.304 1.304V2.89h-.317c-9.658 0-17.515 7.855-17.515 17.511v5.487h-3.822c-.72 0-1.304.584-1.304 1.304v2.312a4.798 4.798 0 003.028 4.454 8.197 8.197 0 00-.152 1.653c.033 3.246 1.986 5.973 4.574 6.69-.021.476-.047.866-.075 1.156-.042.465-.063.97-.063 1.499 0 4.813 3.904 10.412 11.602 16.64.18.146.364.287.551.423l.257.696a7.59 7.59 0 01-.09 5.463L9.94 72.157C4.328 73.243.255 78.179.255 83.893v3.803c0 .72.584 1.304 1.304 1.304h41.423a1.304 1.304 0 100-2.607h-21.42v-3.801h31.803v3.8h-4.266a1.304 1.304 0 100 2.608h24.343c.72 0 1.304-.584 1.304-1.304v-3.803c0-5.715-4.073-10.65-9.682-11.736zm-4.548 7.827h-4.544v-6.956l4.544.893v6.063zM59.1 35.586c-.018 1.792-.875 3.33-2.073 3.972-.016-1.468-.016-3.25 0-5.263h1.935a5.6 5.6 0 01.138 1.291zM41.725 5.498c7.781 0 14.189 5.99 14.851 13.6h-5.57a1.304 1.304 0 100 2.608h5.627v4.183H41.679V5.499h.046zm-5.769 16.208h3.115v4.183h-3.115v-4.183zm3.115-19.099V19.1h-3.115V2.607h3.115zM18.124 21.706h5.626a1.304 1.304 0 000-2.607h-5.57c.663-7.61 7.07-13.6 14.852-13.6h.317v20.39H18.124v-4.183zm-2.25 13.88a5.569 5.569 0 01.138-1.29h1.928c.01 1.954.003 3.746-.022 5.247-1.183-.651-2.026-2.18-2.044-3.957zm4.436 9.37c0-.452.017-.878.05-1.255.166-1.68.206-5.742.187-9.406H23.5a1.304 1.304 0 000-2.608h-8.319a2.186 2.186 0 01-2.183-2.182v-1.009h48.838v1.009c0 1.203-.98 2.183-2.183 2.183H29.597a1.304 1.304 0 000 2.607h24.825c-.024 2.911-.03 7.61.143 9.383.034.42.052.85.052 1.279 0 3.932-3.68 8.988-10.645 14.621a10.302 10.302 0 01-6.483 2.301h-.046c-2.36 0-4.664-.818-6.495-2.307-6.96-5.63-10.638-10.684-10.638-14.615zm17.127 19.53h.058c1.463 0 2.91-.252 4.277-.733a10.147 10.147 0 00.82 5.858 5.188 5.188 0 01-5.175 4.898 5.155 5.155 0 01-3.614-1.468 5.136 5.136 0 01-1.56-3.43 10.148 10.148 0 00.813-5.894 12.89 12.89 0 004.38.77zM14.41 73.93l4.543-.9v6.955H14.41V73.93zM2.862 86.393v-2.5a9.364 9.364 0 017.579-9.177l1.362-.27v11.947h-8.94zm16.092-.023h-4.543v-3.778h4.543v3.778zm2.608-6.386v-7.471l8.22-1.628a7.725 7.725 0 002.203 4.025 7.75 7.75 0 005.432 2.206c3.763 0 6.911-2.681 7.634-6.233l8.314 1.633v7.468H21.562zm38.954 2.608v3.778h-4.544v-3.778h4.544zm11.622 3.8h-9.015V74.434l1.442.283a9.362 9.362 0 017.573 9.177v2.5z" fill="#fff"/><path d="M37.416 54.125a6.134 6.134 0 005.92-4.538 1.304 1.304 0 00-2.519-.674 3.523 3.523 0 01-6.8 0 1.304 1.304 0 00-2.519.674 6.133 6.133 0 005.918 4.538z" fill="#fff"/></svg>