<svg width="58" height="58" fill="none" xmlns="http://www.w3.org/2000/svg"><circle cx="29" cy="29" r="27.5" stroke="#265FB4" stroke-width="3"/><path d="M19.984 36.297a1.36 1.36 0 100 2.719 1.36 1.36 0 000-2.72zm0 1.812a.453.453 0 110-.906.453.453 0 010 .906zm19.032-1.812a1.36 1.36 0 100 2.718 1.36 1.36 0 000-2.718zm0 1.812a.453.453 0 110-.906.453.453 0 010 .906z" fill="#265FB4"/><path d="M43.089 32.24l-.583-.001-1.756-5.135a.453.453 0 00-.428-.306l-4.928-.008.006-3.625a.453.453 0 00-.453-.454l-6.42-.01c.069-.247.107-.501.113-.758a3.943 3.943 0 00-7.887-.012c.005.256.043.511.111.758l-4.948-.007a.453.453 0 00-.454.452l-.022 14.5a.453.453 0 00.452.454l.939.001a3.172 3.172 0 006.278.01l12.753.02a3.172 3.172 0 006.278.01l.94.002a.453.453 0 00.453-.453l.008-4.984a.453.453 0 00-.452-.454zm-3.095-4.553l1.558 4.531H35.39v-4.53h4.604zm-15.31-8.78a3.04 3.04 0 013.037 3.038c0 1.296-1.942 4.288-3.036 5.822-1.095-1.534-3.037-4.526-3.037-5.822a3.04 3.04 0 013.037-3.037zM16.36 23.61h4.81c.302.726.764 1.59 1.386 2.593a40.114 40.114 0 001.767 2.606.452.452 0 00.726 0 40.16 40.16 0 001.767-2.606c.621-1.001 1.083-1.866 1.386-2.593h6.283v13.594H23.122a3.172 3.172 0 00-6.277 0h-.486V23.609zm3.625 16.313a2.266 2.266 0 110-4.533 2.266 2.266 0 010 4.533zm19.03 0a2.266 2.266 0 11.001-4.532 2.266 2.266 0 010 4.532zm3.626-2.72h-.486a3.172 3.172 0 00-6.278 0h-.486v-4.077h7.25v4.078z" fill="#265FB4"/><path d="M26.698 21.814a2.011 2.011 0 10-4.022 0 2.011 2.011 0 004.022 0zm-3.116 0a1.105 1.105 0 112.21 0 1.105 1.105 0 01-2.21 0zm-4.051 11.311h10.875a.453.453 0 100-.906H19.984v-.453h4.532a.453.453 0 00.453-.453v-1.36a.453.453 0 00-.907 0v.906h-4.53a.453.453 0 00-.454.453v1.36a.453.453 0 00.453.453zm12.235-.057h.453a.453.453 0 000-.906h-.453a.453.453 0 100 .906zm0 2.776H28.14a.453.453 0 100 .906h3.625a.453.453 0 100-.906zm1.359.906h.453a.453.453 0 100-.906h-.453a.453.453 0 100 .906z" fill="#265FB4"/></svg>