<svg width="87" height="87" fill="none" xmlns="http://www.w3.org/2000/svg"><path d="M46.4 10.15H20.665L4.276 1.325A2.9 2.9 0 000 3.877v79.246a2.9 2.9 0 004.275 2.552l5.618-3.025h67.214l5.617 3.025A2.9 2.9 0 0087 83.123V3.877a2.9 2.9 0 00-4.275-2.552l-16.39 8.825H46.4zm31.9 31.9H68.15V30.698l10.15-2.944V42.05zm0 17.196l-10.15-2.944V44.95H78.3v14.295zm-10.15.075l10.15 2.943V73.54l-10.15-4.854v-9.365zM78.3 24.735L68.15 27.68v-9.365L78.3 13.46v11.275zM65.25 17.4v56.55h-17.4V72.5a4.35 4.35 0 10-8.7 0v1.45h-17.4v-60.9h17.4v1.45a4.35 4.35 0 008.7 0v-1.45h17.4v4.35zm-20.3 56.55h-2.9V72.5a1.45 1.45 0 012.9 0v1.45zm-36.25-29h10.15v11.352L8.7 59.246V44.95zm0-17.196l10.15 2.944V42.05H8.7V27.754zm10.15-.075L8.7 24.735V13.46l10.15 4.854v9.365zM8.7 62.264l10.15-2.943v9.365L8.7 73.54V62.264zM44.95 13.05v1.45a1.45 1.45 0 01-2.9 0v-1.45h2.9zM2.9 83.123V3.877l15.95 8.593v2.633L7.875 9.851A1.45 1.45 0 005.8 11.165v64.67a1.45 1.45 0 002.075 1.305l10.975-5.239v2.629L2.9 83.123zm12.38-3.373l5.385-2.9H66.34l5.386 2.9H15.28zM84.1 3.877v79.246L68.15 74.53v-2.629l10.975 5.248a1.45 1.45 0 002.075-1.314v-64.67a1.45 1.45 0 00-2.075-1.305L68.15 15.099V12.47L84.1 3.877z" fill="#fff"/><path d="M39.15 24.65a1.45 1.45 0 00-2.9 0c0 15.022 0 27.995-10.659 31.991a1.45 1.45 0 101.018 2.717C39.15 54.655 39.15 40.081 39.15 24.65zm8.7 0c0 15.43 0 30.005 12.542 34.708a1.45 1.45 0 101.018-2.717c-10.66-3.996-10.66-16.97-10.66-31.991a1.45 1.45 0 00-2.9 0zm-2.9 0a1.45 1.45 0 00-2.9 0V49.3a1.45 1.45 0 002.9 0V24.65z" fill="#fff"/></svg>