<svg width="89" height="89" fill="none" xmlns="http://www.w3.org/2000/svg"><path d="M47.293 89h-5.586c-4.517 0-8.193-3.675-8.193-8.193v-1.89a35.932 35.932 0 01-5.58-2.316l-1.339 1.34c-3.243 3.247-8.439 3.152-11.588-.002l-3.948-3.947c-3.155-3.152-3.245-8.346.001-11.589l1.338-1.338a35.916 35.916 0 01-2.315-5.58h-1.89C3.676 55.486 0 51.81 0 47.294v-5.586c0-4.517 3.676-8.193 8.193-8.193h1.89a35.944 35.944 0 012.316-5.58l-1.34-1.338c-3.244-3.241-3.155-8.436.002-11.588l3.948-3.948c3.156-3.161 8.35-3.24 11.588 0l1.338 1.338a35.948 35.948 0 015.58-2.315v-1.89C33.514 3.675 37.19 0 41.706 0h5.586c4.517 0 8.193 3.675 8.193 8.193v1.89a35.928 35.928 0 015.58 2.316l1.338-1.34c3.244-3.247 8.44-3.152 11.589.002l3.948 3.947c3.154 3.152 3.245 8.346-.002 11.589L76.6 27.935a35.936 35.936 0 012.316 5.58h1.89c4.517 0 8.193 3.675 8.193 8.192v5.586c0 4.517-3.676 8.193-8.193 8.193h-1.89a35.944 35.944 0 01-2.316 5.58l1.34 1.338c3.244 3.242 3.155 8.436-.002 11.589l-3.948 3.948c-3.156 3.16-8.35 3.24-11.588-.001l-1.338-1.338a35.958 35.958 0 01-5.58 2.316v1.89c0 4.517-3.675 8.192-8.192 8.192zM28.806 71.125a30.733 30.733 0 007.967 3.307 2.607 2.607 0 011.956 2.525v3.85a2.982 2.982 0 002.978 2.978h5.586a2.982 2.982 0 002.978-2.978v-3.85c0-1.19.805-2.228 1.956-2.525a30.734 30.734 0 007.967-3.307 2.607 2.607 0 013.171.4l2.727 2.728a2.977 2.977 0 004.21.001l3.951-3.95a2.978 2.978 0 00.001-4.211l-2.728-2.728a2.608 2.608 0 01-.4-3.171 30.728 30.728 0 003.306-7.967 2.607 2.607 0 012.525-1.956h3.85a2.982 2.982 0 002.978-2.978v-5.586a2.982 2.982 0 00-2.978-2.978h-3.85a2.607 2.607 0 01-2.524-1.956 30.733 30.733 0 00-3.307-7.966 2.607 2.607 0 01.4-3.171l2.728-2.727a2.977 2.977 0 000-4.211l-3.95-3.95a2.978 2.978 0 00-4.21-.002l-2.729 2.728a2.607 2.607 0 01-3.17.401 30.736 30.736 0 00-7.968-3.307 2.607 2.607 0 01-1.956-2.525v-3.85a2.982 2.982 0 00-2.978-2.978h-5.585a2.982 2.982 0 00-2.979 2.978v3.85c0 1.19-.804 2.228-1.956 2.525a30.735 30.735 0 00-7.967 3.307 2.608 2.608 0 01-3.17-.4l-2.728-2.728a2.977 2.977 0 00-4.21-.001l-3.951 3.95a2.978 2.978 0 00-.001 4.211l2.728 2.728a2.608 2.608 0 01.4 3.171 30.732 30.732 0 00-3.306 7.967 2.607 2.607 0 01-2.525 1.956h-3.85a2.982 2.982 0 00-2.978 2.978v5.586a2.982 2.982 0 002.978 2.978h3.85c1.19 0 2.227.805 2.525 1.956a30.732 30.732 0 003.307 7.967 2.607 2.607 0 01-.401 3.17l-2.727 2.728a2.977 2.977 0 00-.001 4.21l3.95 3.95a2.978 2.978 0 004.21.002l2.729-2.728c.62-.62 1.91-1.147 3.171-.4z" fill="#fff"/><path d="M44.5 63.864c-10.678 0-19.364-8.686-19.364-19.364S33.822 25.136 44.5 25.136 63.865 33.822 63.865 44.5 55.178 63.864 44.5 63.864zm0-33.514c-7.802 0-14.15 6.348-14.15 14.15 0 7.802 6.348 14.15 14.15 14.15 7.802 0 14.15-6.348 14.15-14.15 0-7.802-6.347-14.15-14.15-14.15z" fill="#fff"/></svg>