<svg width="51" height="51" fill="none" xmlns="http://www.w3.org/2000/svg"><path d="M49.406 27.093c-.88 0-1.594-.714-1.594-1.594 0-12.303-10.009-22.312-22.312-22.312A1.594 1.594 0 0125.5 0c6.812 0 13.215 2.652 18.031 7.468 4.816 4.816 7.468 11.22 7.468 18.031 0 .88-.713 1.594-1.593 1.594z" fill="#265FB4"/><path d="M43.031 27.093c-.88 0-1.594-.714-1.594-1.594 0-8.787-7.149-15.937-15.937-15.937a1.594 1.594 0 010-3.187c10.546 0 19.125 8.58 19.125 19.124 0 .88-.714 1.594-1.594 1.594z" fill="#265FB4"/><path d="M36.656 27.093c-.88 0-1.593-.714-1.593-1.594 0-5.273-4.29-9.562-9.563-9.562a1.594 1.594 0 010-3.188c7.03 0 12.75 5.72 12.75 12.75 0 .88-.714 1.594-1.594 1.594z" fill="#265FB4"/><path d="M49.74 35.056l-11.674-2.5a1.59 1.59 0 00-1.46.43l-4.275 4.274A41.952 41.952 0 0113.74 18.67l4.274-4.276a1.59 1.59 0 00.43-1.46l-2.5-11.674A1.594 1.594 0 0014.385 0C11.97 0 9.682.572 7.586 1.698a14.5 14.5 0 00-4.978 4.433A14.439 14.439 0 00.15 12.287a14.101 14.101 0 00.72 6.934c2.554 7.032 6.715 13.56 12.032 18.876 5.317 5.317 11.844 9.478 18.876 12.032 1.596.58 3.228.871 4.875.871.684 0 1.371-.05 2.059-.151a14.439 14.439 0 006.156-2.457 14.498 14.498 0 004.433-4.978A14.205 14.205 0 0051 36.615c0-.752-.525-1.401-1.26-1.559zM8.13 5.146l-.148.038a10.952 10.952 0 014.666-1.866c.26-.04.505.132.56.39l1.882 8.78a.498.498 0 01-.134.457l-1.006 1.006a.498.498 0 01-.84-.248l-1.346-6.28a2.99 2.99 0 00-3.633-2.276zm22.863 35.706a2.995 2.995 0 01-3.534.516A43.531 43.531 0 019.632 23.541a2.995 2.995 0 01.516-3.534.473.473 0 01.758.12 45.132 45.132 0 0019.967 19.967c.288.145.348.53.12.758zm14.823 2.166a2.985 2.985 0 00-2.24-3.782l-6.28-1.346a.498.498 0 01-.247-.84l1.006-1.005c.12-.12.291-.17.456-.135l8.782 1.882c.257.055.428.3.389.56a10.952 10.952 0 01-1.867 4.666z" fill="#265FB4"/></svg>