<svg width="58" height="69" fill="none" xmlns="http://www.w3.org/2000/svg"><path d="M57.928 19.094l-.002-.053c-.03-.654-.05-1.346-.061-2.116-.056-3.755-3.04-6.862-6.797-7.072-7.83-.437-13.888-2.99-19.063-8.035l-.045-.042a4.359 4.359 0 00-5.923 0l-.044.042C20.817 6.863 14.759 9.416 6.929 9.854c-3.755.21-6.74 3.316-6.797 7.071a70.183 70.183 0 01-.06 2.116l-.004.123c-.152 7.985-.341 17.923 2.983 26.942 1.828 4.96 4.597 9.272 8.228 12.816 4.136 4.037 9.554 7.241 16.102 9.524a4.98 4.98 0 001.618.275 4.89 4.89 0 001.62-.276c6.54-2.287 11.952-5.493 16.085-9.529 3.63-3.545 6.398-7.858 8.228-12.819 3.337-9.047 3.148-19.003 2.996-27.003zm-6.746 25.62c-3.506 9.507-10.664 16.036-21.881 19.959a.897.897 0 01-.604 0C17.467 60.757 10.305 54.232 6.8 44.725 3.737 36.41 3.911 27.288 4.064 19.24v-.045c.032-.692.053-1.416.064-2.212a3.208 3.208 0 013.024-3.14c4.431-.247 8.324-1.104 11.9-2.618 3.573-1.512 6.746-3.643 9.7-6.516a.369.369 0 01.494 0c2.954 2.873 6.127 5.004 9.698 6.516 3.578 1.514 7.47 2.37 11.902 2.618a3.208 3.208 0 013.023 3.14c.012.8.033 1.525.064 2.212.153 8.057.322 17.186-2.75 25.518z" fill="#265FB4"/><path d="M28.998 17.696c-9.36 0-16.973 7.615-16.973 16.973 0 9.36 7.614 16.974 16.973 16.974 9.359 0 16.973-7.614 16.973-16.974 0-9.358-7.614-16.973-16.973-16.973zm0 29.95c-7.156 0-12.977-5.821-12.977-12.977 0-7.155 5.821-12.976 12.977-12.976 7.155 0 12.976 5.82 12.976 12.976 0 7.156-5.821 12.977-12.976 12.977z" fill="#265FB4"/><path d="M33.876 29.4l-7.884 7.884-2.14-2.14a1.998 1.998 0 00-2.826 2.826l3.553 3.553c.39.39.902.585 1.413.585s1.023-.195 1.413-.585l9.297-9.297a1.999 1.999 0 00-2.826-2.826z" fill="#265FB4"/></svg>