<svg width="58" height="69" fill="none" xmlns="http://www.w3.org/2000/svg"><path d="M54.36 21.078h-2.22a3.332 3.332 0 00-3.327 3.328v.19a3.335 3.335 0 00-2.22 3.138v1.3c0 .888.347 1.725.976 2.354l1.188 1.188-1.196 10.165a23.26 23.26 0 00-14.537-10.412l-.496-1.488a5.55 5.55 0 003.611-3.107h.47a4.442 4.442 0 004.438-4.437V17.75a2.221 2.221 0 002.219-2.219v-2.219a2.22 2.22 0 00-2.219-2.218h-.193C39.794 4.704 34.328 0 27.734 0c-6.593 0-12.058 4.704-13.119 11.094h-.193a2.221 2.221 0 00-2.219 2.219v2.218a2.22 2.22 0 002.219 2.219v5.547a4.442 4.442 0 004.438 4.437h.47a5.552 5.552 0 003.61 3.107l-.496 1.49a20.429 20.429 0 00-7.012 3.095l-2.186-6.786c-.007-.037-.005-.074-.013-.11-.557-2.338-3.864-3.56-7.547-2.78-2.287.486-4.197 1.638-5.111 3.081-.523.826-.694 1.704-.494 2.543.114.482.35.913.678 1.292L8.36 44.05c-1.115 2.563-1.704 5.275-1.704 8.09 0 4.73 2.712 8.831 6.657 10.856v1.347a4.442 4.442 0 004.437 4.437h24.406V54.256a8.583 8.583 0 006.88 3.431c4.77 0 8.652-3.881 8.652-8.65v-24.63a3.332 3.332 0 00-3.329-3.329zm-5.547 6.656c0-.61.497-1.109 1.109-1.109h1.11v-2.219c0-.611.496-1.11 1.109-1.11h2.218c.613 0 1.11.499 1.11 1.11v6.657H50.38l-1.243-1.244c-.21-.21-.325-.49-.325-.785v-1.3zm-17.75 36.61v2.219h-2.836a4.391 4.391 0 00.617-2.22h2.219zm1.109-2.219h-6.656v-5.088l1.243-1.243a1.12 1.12 0 01.785-.325h1.3c.612 0 1.11.498 1.11 1.11v1.108h2.218c.612 0 1.11.499 1.11 1.11v2.219a1.11 1.11 0 01-1.11 1.109zm-1.91-31.063l.666 1.997-3.194 3.993-3.195-3.994.666-1.997h5.058v.002zm-5.711 5.562c-.05-.001-.096-.015-.145-.015H17.75c-.011 0-.021.004-.032.004a18.16 18.16 0 015.155-2.086l1.678 2.097zm-6.8 2.204h2.814a4.404 4.404 0 00-.596 2.219v1.11h2.219v-1.11a2.22 2.22 0 012.218-2.219c1.224 0 2.22.995 2.22 2.219a2.221 2.221 0 01-2.22 2.219H17.75a2.221 2.221 0 01-2.219-2.22 2.22 2.22 0 012.22-2.218zm-2.22 6.04a4.392 4.392 0 002.22.616h6.655c.812 0 1.564-.235 2.22-.616v8.526a3.295 3.295 0 00-1.435.831l-1.244 1.244H19.97a9.993 9.993 0 01-4.438-1.049v-9.552zm15.532 9.242a3.31 3.31 0 00-2.22-.86V41.047c0-.524-.107-1.02-.274-1.487l2.494-3.116V54.11zm5.546-28.594v-4.438c1.224 0 2.22.995 2.22 2.219a2.22 2.22 0 01-2.22 2.219zm2.22-6.04a4.392 4.392 0 00-2.22-.617V17.75h2.22v1.726zm-.227-8.382h-7.54V2.727a10.996 10.996 0 017.54 8.367zm-9.758-8.82v8.82h-2.219v-8.82a11.62 11.62 0 011.11-.055c.374 0 .744.02 1.109.055zm-4.438.453v8.367h-7.539a10.996 10.996 0 017.54-8.367zm-9.985 10.586h26.626v2.218H14.422l-.001-2.219zm4.439 4.437v1.11a4.4 4.4 0 00-2.22.616V17.75h2.22zm-2.22 5.547c0-1.224.996-2.219 2.22-2.219v4.438a2.221 2.221 0 01-2.22-2.22zm4.438 2.219V17.75h13.313v7.766a3.332 3.332 0 01-3.328 3.328h-6.657a3.332 3.332 0 01-3.328-3.328zM2.448 30.02c.584-.921 2.035-1.744 3.7-2.098a8.532 8.532 0 011.764-.193c1.57 0 2.688.497 3.052 1.065l.109.337c.026.227-.032.478-.209.757-.583.92-2.034 1.744-3.698 2.097-2.29.485-4.02-.02-4.662-.697l-.217-.326c-.014-.034-.04-.065-.05-.098-.057-.249.014-.532.211-.844zm2.994 4.37c.698 0 1.434-.076 2.185-.236 1.783-.378 3.33-1.165 4.362-2.176l2.111 6.555a4.404 4.404 0 00-.787 2.514v6.428L4.544 34.342c.292.029.59.047.898.047zm3.433 17.75c0-2.017.327-3.98.972-5.86l3.466 5.192v1.432a9.929 9.929 0 01-1.332-1.429l-1.775 1.331a12.261 12.261 0 009.763 4.882h3.328v4.437h-4.438c-5.505 0-9.984-4.48-9.984-9.984zm12.203 14.422H17.75a2.221 2.221 0 01-2.219-2.218v-.473c1.06.3 2.174.473 3.329.473h7.765a2.221 2.221 0 01-2.219 2.219h-3.328zM49.036 55.47a6.398 6.398 0 01-5.754-3.556l-1.126-2.253v-4.176h-2.218v21.078H33.28V64.14a3.324 3.324 0 002.22-3.124v-2.22c0-1.444-.932-2.664-2.22-3.123v-20.99A21.038 21.038 0 0146.938 46.26l.167.367-.502 4.276 2.203.258 2.102-17.88h4.56v15.756a6.44 6.44 0 01-6.432 6.432z" fill="#265FB4"/></svg>