<svg width="74" height="99" fill="none" xmlns="http://www.w3.org/2000/svg"><path d="M71.93 87.398v-52.4c0-9.312-3.651-18.09-10.28-24.719C55.022 3.65 46.243 0 36.931 0c-9.312 0-18.09 3.65-24.719 10.28C5.584 16.907 1.933 25.685 1.933 34.997v52.4A1.933 1.933 0 000 89.332v7.734C0 98.134.865 99 1.934 99H71.93a1.934 1.934 0 001.933-1.934v-7.734a1.934 1.934 0 00-1.934-1.934zM5.8 34.998c0-17.165 13.966-31.13 31.131-31.13 17.166 0 31.131 13.964 31.131 31.13v52.4h-3.867v-52.4c0-7.247-2.846-14.083-8.013-19.25-5.167-5.168-12.004-8.013-19.25-8.013-7.248 0-14.085 2.845-19.252 8.012-5.167 5.168-8.013 12.004-8.013 19.251v52.4H5.801v-52.4zm45.197 19.603a1.929 1.929 0 002.734 0l6.597-6.596V60.23H38.865v-23.3H50.1l.007.001h10.221v5.604l-9.331 9.33a1.933 1.933 0 000 2.735zm-2.954 15.91a1.93 1.93 0 002.734-.001l6.413-6.41h3.139v23.3H38.865V64.1H51.72l-3.677 3.677a1.934 1.934 0 000 2.734zm-.04-37.446h-9.138v-9.139a11.267 11.267 0 019.139 9.139zm-9.138-13.048v-8.335c11.362.934 20.448 10.02 21.382 21.383h-8.335c-.871-6.787-6.26-12.177-13.047-13.048zm-8.674 58.05a1.933 1.933 0 00-2.735 0l-9.33 9.331h-4.592v-23.3h21.464v23.3H23.594l6.597-6.596a1.933 1.933 0 000-2.735zM13.535 60.231v-3.888l6.411-6.412a1.933 1.933 0 10-2.734-2.734l-3.677 3.677V36.932h21.463v23.3H13.535zm12.324-27.166a11.267 11.267 0 019.139-9.139v9.139h-9.139zm-3.909 0h-8.335c.934-11.362 10.021-20.449 21.383-21.383v8.335c-6.787.871-12.176 6.26-13.048 13.048zm48.046 62.068H3.867v-3.868h66.129v3.868z" fill="#fff"/><path d="M21.17 43.239l-.032.032A1.934 1.934 0 0023.876 46l.032-.032a1.933 1.933 0 10-2.738-2.73zm22.944 28.465l-.032.032a1.934 1.934 0 002.735 2.734l.032-.032a1.934 1.934 0 00-2.734-2.734z" fill="#fff"/></svg>