<svg width="331" height="70" fill="none" xmlns="http://www.w3.org/2000/svg"><path d="M25.327 55.242h2.54c-.076 2.171-.59 2.861-5.876 2.861-5.543 0-6.184-.664-6.184-3.986 0-3.398.641-3.986 6.184-3.986 5.363 0 5.8.665 5.877 2.683h-2.54c-.104-.766-.283-1.022-3.363-1.022-3.181 0-3.49.256-3.49 1.738v1.124c0 1.482.309 1.763 3.49 1.763 3.054.025 3.26-.307 3.362-1.175zM72.8 58v-7.767h2.669v7.768H72.8zm57.865-2.758h2.541c-.077 2.171-.591 2.861-5.877 2.861-5.542 0-6.184-.664-6.184-3.986 0-3.398.642-3.986 6.184-3.986 5.363 0 5.8.665 5.877 2.683h-2.541c-.102-.766-.282-1.022-3.361-1.022-3.182 0-3.49.256-3.49 1.738v1.124c0 1.482.308 1.763 3.49 1.763 3.053.025 3.259-.307 3.361-1.175zm50.629 2.759v-6.03h-3.951v-1.763h10.597v1.763h-3.977v6.03h-2.669zM232.308 58v-7.767h10.393v1.815h-7.878v1.073h7.724v1.635h-7.724v1.482h7.929v1.788h-10.444v-.025zm68.772.001V54.45c0-.716 0-1.431.025-2.121-.41.639-.846 1.252-1.283 1.865l-2.745 3.833h-2.515l-2.566-3.807c-.411-.614-.847-1.252-1.258-1.891.026.715.052 1.405.052 2.146v3.552h-2.489v-7.768h3.669l3.926 5.903 4.132-5.903h3.515v7.768h-2.463V58zM15.345 43.82V21.157c0-4.242 3.464-7.691 7.724-7.691H59.84c13.806 0 13.806 4.548 13.806 7.946 0 3.884-1.514 5.75-6.647 6.49 5.466.332 7.647 3.117 7.647 7.154 0 4.114 0 8.764-14.19 8.764H15.345zm13.241-23.864v5.391h29.356c2.387 0 2.643-.562 2.643-2.81 0-1.968-.308-2.607-2.643-2.607H28.586v.026zm32.487 13.746c0-1.967-.437-2.683-3.13-2.683H28.585v6.312h29.356c2.823 0 3.13-.41 3.13-2.198v-1.43zM85.168 43.82V13.466h13.241V43.82H85.168zm67.437 0l-23.788-12.826h-8.648V43.82h-13.241V13.466h13.241V24.81h6.903l25.225-11.345h18.065L139.62 27.263l31.255 16.557h-18.27zm70.953 0V31.428h-34.822V43.82h-13.37V13.466h13.37v11.268h34.822V13.466h13.369V43.82h-13.369zm16.987-15.151c0-13.16 2.387-15.638 32.384-15.638 29.485 0 32.308 2.479 32.308 15.638 0 13.158-2.823 15.509-32.308 15.509-29.92 0-32.384-2.35-32.384-15.51zm51.322-2.453c0-5.238-2.771-6.72-18.938-6.72-16.628 0-19.066 1.482-19.066 6.72v4.803c0 5.187 2.438 6.746 19.066 6.746 16.193 0 18.938-1.559 18.938-6.746v-4.803z" fill="#fff"/><path d="M305.955 69.192H13.523C6.082 69.192 0 63.162 0 55.727V13.465C0 6.055 6.056 0 13.523 0h67.565v3.833H13.523c-5.312 0-9.648 4.318-9.648 9.607v42.287c0 5.289 4.336 9.607 9.648 9.607h292.432c5.312 0 9.649-4.318 9.649-9.607V13.465c0-5.289-4.337-9.607-9.649-9.607H101.232V.026h204.723c7.442 0 13.523 6.03 13.523 13.465v42.287c0 7.384-6.081 13.414-13.523 13.414zm14.498-61.655v-6.08h-1.899V.638h4.824v.817h-1.873v6.081h-1.052zm9.648 0V3.27c0-.868 0-1.328.026-1.993l-2.156 6.26h-1.078l-2.078-6.26c.026.69.026 1.176.026 2.07v4.19h-.95V.64h1.617l1.36 4.139c.308.92.462 1.43.564 1.814.103-.383.283-.894.591-1.789l1.437-4.14h1.539v6.899h-.898v-.026z" fill="#fff"/><path d="M98.461 0H84.938v3.833h13.523V0z" fill="#fff"/></svg>